Uploaded by kangalee

This is just a reconversion to avi of this source file, THANKS scenebalance


[pre]...............................................
. Lost.Girl.S02E06.Its.Better.To.Burn.Out.Than.Fae.Away.480p.WEB-DL.x264-mSD.mkv
.......................................
. Duration        :: 44 Minutes
. Release Size    :: 223MB (83% Compress)
. x264 r2106      :: 537 Kbps
. AAC 2ch CBR     :: 160 Kbps
. Resolution (AR) :: 852x480 (1.775)


This file is the full show WITHOUT the black outs into the start of the show.


General
Complete name                    : D:\Vids\Lost.Girl. S02 Ep 06.avi
Format                           : AVI
Format/Info                      : Audio Video Interleave
File size                        : 417 MiB
Duration                         : 44mn 3s
Overall bit rate                 : 1 323 Kbps

Video
ID                               : 0
Format                           : MPEG-4 Visual
Format profile                   : Advanced Simple@L4
Format settings, BVOP            : No
Format settings, QPel            : No
Format settings, GMC             : No warppoints
Format settings, Matrix          : Default (H.263)
Codec ID                         : XVID
Codec ID/Hint                    : XviD
Duration                         : 44mn 3s
Bit rate                         : 1 186 Kbps
Width                            : 624 pixels
Height                           : 352 pixels
Display aspect ratio             : 16:9
Frame rate                       : 23.976 fps
Color space                      : YUV
Chroma subsampling               : 4:2:0
Bit depth                        : 8 bits
Scan type                        : Progressive
Compression mode                 : Lossy
Bits/(Pixel*Frame)               : 0.225
Stream size                      : 374 MiB (90%)
Writing library                  : XviD 1.2.1 (UTC 2008-12-04)

Audio
ID                               : 1
Format                           : MPEG Audio
Format version                   : Version 1
Format profile                   : Layer 3
Codec ID                         : 55
Codec ID/Hint                    : MP3
Duration                         : 44mn 3s
Bit rate mode                    : Constant
Bit rate                         : 128 Kbps
Channel(s)                       : 2 channels
Sampling rate                    : 44.1 KHz
Compression mode                 : Lossy
Stream size                      : 40.3 MiB (10%)
Alignment                        : Split accross interleaves
Interleave, duration             : 42 ms (1.00 video frame)
Writing library                  : LAMELAME_MAJOR_VERSI


Enjoy and please help seed if you can.